<?xml version="1.0" encoding="UTF-8"?>
<!DOCTYPE svg PUBLIC "-//W3C//DTD SVG 1.1//EN" "http://www.w3.org/Graphics/SVG/1.1/DTD/svg11.dtd">
<!-- Creator: CorelDRAW 2021 (64 Bit) -->
<svg xmlns="http://www.w3.org/2000/svg" xml:space="preserve" width="210mm" height="297mm" version="1.1" style="shape-rendering:geometricPrecision; text-rendering:geometricPrecision; image-rendering:optimizeQuality; fill-rule:evenodd; clip-rule:evenodd"
viewBox="0 0 21000 29700"
 xmlns:xlink="http://www.w3.org/1999/xlink"
 xmlns:xodm="http://www.corel.com/coreldraw/odm/2003">
 <defs>
  <style type="text/css">
   <![CDATA[
    .str0 {stroke:#E3646E;stroke-width:52.92;stroke-miterlimit:22.9256}
    .str1 {stroke:#16181D;stroke-width:20;stroke-miterlimit:22.9256}
    .fil0 {fill:none}
    .fil1 {fill:none;fill-rule:nonzero}
    .fil2 {fill:#16181D;fill-rule:nonzero}
    .fil3 {fill:#82BC4F;fill-rule:nonzero}
   ]]>
  </style>
    <clipPath id="id0">
     <path d="M10801.97 6591.82c0,224.45 181.95,406.4 406.4,406.4 224.45,0 406.4,-181.95 406.4,-406.4 0,-224.45 -181.95,-406.4 -406.4,-406.4 -224.45,0 -406.4,181.95 -406.4,406.4z"/>
    </clipPath>
     <clipPath id="id1">
      <path d="M10801.97 6591.82c0,224.45 181.95,406.4 406.4,406.4 224.45,0 406.4,-181.95 406.4,-406.4 0,-224.45 -181.95,-406.4 -406.4,-406.4 -224.45,0 -406.4,181.95 -406.4,406.4z"/>
     </clipPath>
     <clipPath id="id2">
      <path d="M10801.97 6591.82c0,224.45 181.95,406.4 406.4,406.4 224.45,0 406.4,-181.95 406.4,-406.4 0,-224.45 -181.95,-406.4 -406.4,-406.4 -224.45,0 -406.4,181.95 -406.4,406.4z"/>
     </clipPath>
     <clipPath id="id3" style="clip-rule:nonzero">
      <path d="M11208.37 6229.9l0 0c199.85,0 361.92,162.07 361.92,361.92l0 0c0,199.84 -162.07,361.91 -361.92,361.91l0 0.01c-199.84,-0.01 -361.91,-162.08 -361.91,-361.92l-0.01 0c0.01,-199.85 162.08,-361.92 361.92,-361.92z"/>
     </clipPath>
    <clipPath id="id4" style="clip-rule:nonzero">
     <path d="M11208.37 6229.9l0 0c199.85,0 361.92,162.07 361.92,361.92l0 0c0,199.84 -162.07,361.91 -361.92,361.91l0 0.01c-199.84,-0.01 -361.91,-162.08 -361.91,-361.92l-0.01 0c0.01,-199.85 162.08,-361.92 361.92,-361.92z"/>
    </clipPath>
     <clipPath id="id5">
      <path d="M11208.37 6229.9c199.85,0 361.92,162.07 361.92,361.92 0,199.84 -162.07,361.91 -361.92,361.91l0 0.01c-199.84,-0.01 -361.91,-162.08 -361.91,-361.92l-0.01 0c0.01,-199.85 162.08,-361.92 361.92,-361.92z"/>
     </clipPath>
     <clipPath id="id6">
      <path d="M11208.37 6229.9l0 0c199.85,0 361.92,162.07 361.92,361.92l0 0c0,199.84 -162.07,361.91 -361.92,361.91l0 0.01c-199.84,-0.01 -361.91,-162.08 -361.91,-361.92l-0.01 0c0.01,-199.85 162.08,-361.92 361.92,-361.92z"/>
     </clipPath>
 </defs>
 <g id="Camada_x0020_1">
  <metadata id="CorelCorpID_0Corel-Layer"/>
  <g id="_2424723878256">
   <g>
   </g>
   <g style="clip-path:url(#id0)">
    <g id="_2424723879552">
    </g>
    <g style="clip-path:url(#id1)">
     <image x="10689.59" y="6114.55" width="1037.55" height="954.55" xlink:href="my-avatar_Images\my-avatar_ImgID1.png"/>
    </g>
    <g style="clip-path:url(#id2)">
    </g>
   </g>
   <path class="fil0 str0" d="M10801.97 6591.82c0,224.45 181.95,406.4 406.4,406.4 224.45,0 406.4,-181.95 406.4,-406.4 0,-224.45 -181.95,-406.4 -406.4,-406.4 -224.45,0 -406.4,181.95 -406.4,406.4z"/>
   <g>
    <g style="clip-path:url(#id3)">
     <image x="10846.45" y="6229.9" width="723.84" height="723.84" xlink:href="my-avatar_Images\my-avatar_ImgID2.png"/>
    </g>
   </g>
   <g style="clip-path:url(#id4)">
    <g>
    </g>
    <g style="clip-path:url(#id5)">
     <image x="10689.59" y="6114.55" width="1037.55" height="954.55" xlink:href="my-avatar_Images\my-avatar_ImgID3.png"/>
    </g>
    <g style="clip-path:url(#id6)">
    </g>
   </g>
   <path class="fil1" d="M11208.37 6229.9l0 0c199.85,0 361.92,162.07 361.92,361.92l0 0c0,199.84 -162.07,361.91 -361.92,361.91l0 0.01c-199.84,-0.01 -361.91,-162.08 -361.91,-361.92l-0.01 0c0.01,-199.85 162.08,-361.92 361.92,-361.92z"/>
  </g>
  <g>
   <circle class="fil0 str1" cx="11208.17" cy="6591.61" r="390.51"/>
   <path class="fil2" d="M11442.58 6870.96l18.02 21.64 0.09 -0.07 0.08 -0.07 -18.19 -21.5zm-32.51 27.09l-18.03 -21.64 -25.96 21.64 25.96 21.64 18.03 -21.64zm32.51 27.09l-18.03 21.63 0.09 0.08 0.09 0.07 17.85 -21.78zm-13.52 16.23l18.2 -21.5 -0.09 -0.07 -0.08 -0.07 -18.03 21.64zm-42.24 -35.2l18.03 -21.64 -0.01 0 -18.02 21.64zm-3.8 -8.12l28.16 0 -28.16 0zm3.8 -8.11l18.02 21.63 0.01 0 -18.03 -21.63zm42.24 -35.21l-17.85 -21.78 -0.09 0.08 -0.09 0.07 18.03 21.63zm168.4 35.21l-18.03 21.63 0.01 0 18.02 -21.63zm-42.24 -35.21l-18.19 21.5 0.08 0.07 0.08 0.07 18.03 -21.64zm-13.52 16.23l18.03 -21.63 -0.09 -0.08 -0.09 -0.07 -17.85 21.78zm32.51 27.09l18.03 21.64 25.96 -21.64 -25.96 -21.64 -18.03 21.64zm-32.51 27.09l17.85 21.78 0.09 -0.07 0.09 -0.08 -18.03 -21.63zm13.52 16.23l-18.03 -21.64 -0.08 0.07 -0.08 0.07 18.19 21.5zm42.24 -35.2l-18.02 -21.64 -0.01 0 18.03 21.64zm-73.55 -95.49l-9.62 26.47 0 0 9.62 -26.47zm-13.54 6.32l26.47 9.62 0 -0.01 -26.47 -9.61zm-56.32 154.89l-26.46 -9.63 -0.01 0.02 26.47 9.61zm6.32 13.52l9.76 -26.41 -0.07 -0.03 -0.07 -0.02 -9.62 26.46zm3.61 0.65l0 -28.17 -0.04 0 0.04 28.17zm9.93 -6.96l-26.47 -9.62 0 0 26.47 9.62zm56.32 -154.89l-26.47 -9.62 0 0 26.47 9.62zm-105.68 25.12l-32.51 27.08 36.05 43.28 32.51 -27.09 -36.05 -43.27zm-32.51 70.36l32.51 27.08 36.05 -43.27 -32.51 -27.09 -36.05 43.28zm32.69 27.23c-1.8,-1.47 -3.29,-3.29 -4.38,-5.34l49.71 -26.48c-2.41,-4.51 -5.68,-8.5 -9.63,-11.74l-35.7 43.56zm-4.38 -5.34c-1.09,-2.05 -1.77,-4.29 -1.99,-6.6l56.07 -5.34c-0.48,-5.09 -1.97,-10.03 -4.37,-14.54l-49.71 26.48zm-1.99 -6.6c-0.22,-2.32 0.02,-4.65 0.71,-6.87l53.81 16.63c1.51,-4.88 2.04,-10.01 1.55,-15.1l-56.07 5.34zm0.71 -6.87c0.68,-2.22 1.8,-4.28 3.29,-6.07l43.28 36.05c3.27,-3.93 5.73,-8.46 7.24,-13.35l-53.81 -16.63zm3.29 -6.07c1.49,-1.78 3.31,-3.26 5.37,-4.33l26.09 49.92c4.53,-2.37 8.54,-5.61 11.82,-9.54l-43.28 -36.05zm5.37 -4.33c2.06,-1.08 4.31,-1.74 6.63,-1.94l4.88 56.11c5.1,-0.44 10.05,-1.89 14.58,-4.25l-26.09 -49.92zm6.63 -1.94c2.31,-0.2 4.64,0.06 6.86,0.76l-17.07 53.68c4.87,1.55 10,2.12 15.09,1.67l-4.88 -56.11zm6.86 0.76c2.21,0.71 4.26,1.84 6.04,3.34l-36.4 42.99c3.9,3.3 8.42,5.8 13.29,7.35l17.07 -53.68zm5.87 3.2l-42.24 -35.2 -36.06 43.27 42.24 35.2 36.06 -43.27zm-42.25 -35.2c1.99,1.65 3.58,3.72 4.68,6.05l-51.01 23.9c2.41,5.14 5.92,9.69 10.28,13.32l36.05 -43.27zm4.68 6.05c1.09,2.34 1.66,4.89 1.66,7.47l-56.32 0c0,5.68 1.25,11.29 3.65,16.43l51.01 -23.9zm1.66 7.47c0,2.58 -0.57,5.13 -1.66,7.47l-51.01 -23.9c-2.4,5.14 -3.65,10.75 -3.65,16.43l56.32 0zm-1.66 7.47c-1.1,2.34 -2.69,4.4 -4.68,6.05l-36.05 -43.27c-4.36,3.63 -7.87,8.18 -10.28,13.32l51.01 23.9zm-4.67 6.05l42.24 -35.2 -36.06 -43.27 -42.24 35.2 36.06 43.27zm42.06 -35.05c-3.59,2.94 -8.2,4.35 -12.82,3.9l5.33 -56.07c-10.17,-0.96 -20.31,2.13 -28.21,8.6l35.7 43.57zm-12.82 3.9c-4.63,-0.43 -8.89,-2.68 -11.86,-6.25l43.28 -36.05c-6.54,-7.85 -15.92,-12.8 -26.09,-13.77l-5.33 56.07zm-11.86 -6.25c-2.97,-3.57 -4.41,-8.17 -4.01,-12.79l56.11 4.88c0.88,-10.18 -2.29,-20.29 -8.82,-28.14l-43.28 36.05zm-4.01 -12.79c0.4,-4.63 2.62,-8.91 6.16,-11.91l36.39 42.99c7.8,-6.61 12.67,-16.02 13.56,-26.2l-56.11 -4.88zm197.27 6.92l-42.24 -35.2 -36.06 43.27 42.24 35.2 36.06 -43.27zm-42.07 -35.06c-3.9,-3.3 -8.42,-5.8 -13.29,-7.35l-17.06 53.68c-2.22,-0.71 -4.27,-1.84 -6.04,-3.34l36.39 -42.99zm-13.29 -7.35c-4.87,-1.55 -10,-2.12 -15.09,-1.67l4.88 56.11c-2.31,0.2 -4.64,-0.06 -6.85,-0.76l17.06 -53.68zm-15.09 -1.67c-5.09,0.44 -10.05,1.89 -14.58,4.26l26.09 49.91c-2.06,1.08 -4.31,1.74 -6.63,1.94l-4.88 -56.11zm-14.58 4.26c-4.53,2.36 -8.54,5.6 -11.81,9.53l43.27 36.05c-1.48,1.78 -3.31,3.26 -5.37,4.33l-26.09 -49.91zm-11.81 9.53c-3.27,3.93 -5.74,8.47 -7.25,13.35l53.81 16.63c-0.68,2.22 -1.8,4.28 -3.29,6.07l-43.27 -36.05zm-7.25 13.35c-1.5,4.88 -2.03,10.02 -1.55,15.1l56.07 -5.33c0.22,2.31 -0.02,4.64 -0.71,6.86l-53.81 -16.63zm-1.55 15.1c0.48,5.09 1.97,10.03 4.37,14.54l49.71 -26.48c1.09,2.05 1.77,4.29 1.99,6.61l-56.07 5.33zm4.37 14.54c2.41,4.51 5.68,8.5 9.63,11.74l35.7 -43.56c1.8,1.47 3.29,3.29 4.38,5.34l-49.71 26.48zm9.46 11.6l32.5 27.09 36.06 -43.28 -32.51 -27.08 -36.05 43.27zm32.5 -16.19l-32.5 27.09 36.05 43.27 32.51 -27.08 -36.06 -43.28zm-32.33 26.95c-3.95,3.24 -7.22,7.23 -9.63,11.74l49.71 26.48c-1.09,2.05 -2.58,3.87 -4.38,5.34l-35.7 -43.56zm-9.63 11.74c-2.4,4.51 -3.89,9.45 -4.37,14.54l56.07 5.34c-0.22,2.31 -0.9,4.55 -1.99,6.6l-49.71 -26.48zm-4.37 14.54c-0.48,5.09 0.05,10.22 1.55,15.1l53.81 -16.63c0.69,2.22 0.93,4.55 0.71,6.87l-56.07 -5.34zm1.55 15.1c1.51,4.89 3.98,9.42 7.25,13.35l43.27 -36.05c1.49,1.79 2.61,3.85 3.29,6.07l-53.81 16.63zm7.25 13.35c3.27,3.93 7.28,7.17 11.81,9.54l26.09 -49.92c2.06,1.07 3.89,2.55 5.37,4.33l-43.27 36.05zm11.81 9.54c4.53,2.36 9.49,3.81 14.58,4.25l4.88 -56.11c2.32,0.2 4.57,0.86 6.63,1.94l-26.09 49.92zm14.58 4.25c5.09,0.45 10.22,-0.12 15.09,-1.67l-17.06 -53.68c2.21,-0.7 4.54,-0.96 6.85,-0.76l-4.88 56.11zm15.09 -1.67c4.87,-1.55 9.39,-4.05 13.29,-7.35l-36.39 -42.99c1.77,-1.5 3.82,-2.63 6.04,-3.34l17.06 53.68zm13.12 -7.21l42.24 -35.2 -36.06 -43.27 -42.24 35.2 36.06 43.27zm42.24 -35.2c4.36,-3.63 7.87,-8.18 10.28,-13.32l-51 -23.9c1.09,-2.33 2.69,-4.4 4.67,-6.05l36.05 43.27zm10.28 -13.32c2.41,-5.14 3.66,-10.75 3.66,-16.43l-56.33 0c0,-2.58 0.57,-5.13 1.67,-7.47l51 23.9zm3.66 -16.43c0,-5.68 -1.25,-11.29 -3.66,-16.43l-51 23.9c-1.1,-2.34 -1.67,-4.89 -1.67,-7.47l56.33 0zm-3.66 -16.43c-2.41,-5.14 -5.92,-9.69 -10.28,-13.32l-36.05 43.27c-1.98,-1.65 -3.58,-3.71 -4.67,-6.05l51 -23.9zm-92.24 -97.41c-4.78,-1.74 -9.85,-2.52 -14.93,-2.29l2.47 56.27c-2.31,0.1 -4.61,-0.25 -6.78,-1.04l19.24 -52.94zm-14.93 -2.29c-5.08,0.22 -10.07,1.44 -14.68,3.6l23.83 51.03c-2.1,0.98 -4.37,1.54 -6.68,1.64l-2.47 -56.27zm-14.68 3.6c-4.61,2.15 -8.75,5.19 -12.18,8.94l41.54 38.03c-1.56,1.7 -3.44,3.08 -5.53,4.06l-23.83 -51.03zm-12.18 8.94c-3.44,3.75 -6.1,8.14 -7.83,12.92l52.93 19.23c-0.79,2.18 -2,4.17 -3.56,5.88l-41.54 -38.03zm-7.83 12.91l-56.32 154.89 52.93 19.25 56.32 -154.89 -52.93 -19.25zm-56.33 154.91c-3.5,9.65 -3.03,20.3 1.32,29.6l51.03 -23.84c1.97,4.23 2.19,9.07 0.59,13.45l-52.94 -19.21zm1.32 29.6c4.34,9.3 12.2,16.49 21.85,20l19.24 -52.93c4.39,1.59 7.96,4.86 9.94,9.09l-51.03 23.84zm21.72 19.95c4.29,1.59 8.82,2.4 13.4,2.39l-0.08 -56.33c2.11,0 4.21,0.38 6.19,1.11l-19.51 52.83zm13.35 2.39c7.95,0 15.71,-2.45 22.22,-7.01l-32.31 -46.13c2.96,-2.07 6.49,-3.19 10.1,-3.19l-0.01 56.33zm22.22 -7.01c6.52,-4.56 11.47,-11.01 14.18,-18.48l-52.93 -19.25c1.23,-3.39 3.49,-6.33 6.44,-8.4l32.31 46.13zm14.18 -18.48l56.32 -154.89 -52.93 -19.25 -56.32 154.89 52.93 19.25zm56.32 -154.89c1.74,-4.78 2.52,-9.86 2.3,-14.94l-56.27 2.48c-0.1,-2.31 0.25,-4.62 1.04,-6.79l52.93 19.25zm2.3 -14.94c-0.22,-5.08 -1.45,-10.07 -3.6,-14.68l-51.03 23.83c-0.98,-2.09 -1.54,-4.36 -1.64,-6.67l56.27 -2.48zm-3.6 -14.68c-2.15,-4.6 -5.19,-8.74 -8.94,-12.18l-38.03 41.55c-1.71,-1.56 -3.09,-3.45 -4.06,-5.54l51.03 -23.83zm-8.94 -12.18c-3.75,-3.43 -8.14,-6.09 -12.92,-7.83l-19.24 52.94c-2.17,-0.79 -4.17,-2 -5.87,-3.56l38.03 -41.55z"/>
   <path class="fil3" d="M11442.58 6870.96l-32.51 27.09 32.51 27.09c1.08,0.88 1.97,1.97 2.62,3.2 0.66,1.23 1.06,2.58 1.2,3.97 0.13,1.38 -0.01,2.79 -0.43,4.12 -0.41,1.33 -1.08,2.56 -1.97,3.64 -0.89,1.07 -1.99,1.95 -3.22,2.6 -1.24,0.64 -2.59,1.04 -3.98,1.16 -1.39,0.12 -2.79,-0.04 -4.12,-0.46 -1.32,-0.42 -2.56,-1.1 -3.62,-2l-42.24 -35.2c-1.19,-1 -2.15,-2.24 -2.81,-3.64 -0.65,-1.4 -0.99,-2.93 -0.99,-4.48 0,-1.55 0.34,-3.08 0.99,-4.48 0.66,-1.4 1.62,-2.64 2.81,-3.63l42.24 -35.21c2.15,-1.76 4.92,-2.6 7.69,-2.34 2.78,0.26 5.33,1.61 7.12,3.75 1.78,2.14 2.65,4.9 2.4,7.68 -0.24,2.77 -1.57,5.34 -3.69,7.14zm154.88 18.98l-42.24 -35.21c-1.06,-0.9 -2.29,-1.58 -3.62,-2 -1.33,-0.42 -2.73,-0.58 -4.12,-0.46 -1.39,0.12 -2.74,0.52 -3.97,1.16 -1.24,0.65 -2.33,1.53 -3.23,2.6 -0.89,1.08 -1.56,2.31 -1.97,3.64 -0.41,1.34 -0.56,2.74 -0.43,4.12 0.14,1.39 0.54,2.74 1.2,3.97 0.65,1.23 1.55,2.32 2.62,3.2l32.51 27.09 -32.51 27.09c-1.07,0.88 -1.97,1.97 -2.62,3.2 -0.66,1.23 -1.06,2.58 -1.2,3.97 -0.13,1.38 0.02,2.79 0.43,4.12 0.41,1.33 1.08,2.56 1.97,3.64 0.9,1.07 1.99,1.95 3.23,2.6 1.23,0.64 2.58,1.04 3.97,1.16 1.39,0.12 2.79,-0.04 4.12,-0.46 1.33,-0.42 2.56,-1.1 3.62,-2l42.24 -35.2c1.19,-1 2.15,-2.24 2.81,-3.64 0.65,-1.4 0.99,-2.93 0.99,-4.48 0,-1.55 -0.34,-3.08 -0.99,-4.48 -0.66,-1.4 -1.62,-2.64 -2.81,-3.63zm-73.55 -79.26c-1.3,-0.48 -2.69,-0.69 -4.07,-0.63 -1.39,0.06 -2.75,0.4 -4.01,0.99 -1.25,0.58 -2.38,1.41 -3.32,2.43 -0.94,1.03 -1.66,2.22 -2.14,3.53l-56.32 154.89c-0.95,2.63 -0.82,5.53 0.36,8.07 1.19,2.54 3.33,4.5 5.96,5.45 1.16,0.43 2.38,0.65 3.61,0.65 2.17,0 4.28,-0.67 6.06,-1.91 1.78,-1.25 3.12,-3.01 3.87,-5.05l56.32 -154.89c0.47,-1.3 0.69,-2.68 0.62,-4.07 -0.06,-1.39 -0.39,-2.75 -0.98,-4 -0.58,-1.26 -1.41,-2.39 -2.43,-3.32 -1.03,-0.94 -2.23,-1.67 -3.53,-2.14z"/>
  </g>
 </g>
</svg>
